#!OML:ASF E:\Steps\Project 1\Capture day 1\Session 2\Subject.ASF
:FULLY-SPECIFIED
:DEGREES
40
root 9.68528 11.735 4.33118 18.6168 -1.32663 -0.413586
lowerback -0.367205 0.515535 -2.1267
upperback 1.98635 0.749023 -1.50419
thorax 2.23601 0.349614 -0.334045
lowerneck -10.4328 -0.751159 7.21374
upperneck -14.7113 -1.48545 0.977857
head -3.05084 -1.14011 -0.913776
rclavicle -2.98177e-015 1.31198e-014
rhumerus 62.8633 -0.58724 -54.6427
rradius 19.651
rwrist 28.004
rhand -10.6145 -37.2705
rfingers 7.12502
rthumb 15.3919 -66.6776
lclavicle -2.98177e-015 1.31198e-014
lhumerus 0 0 0
lradius 0
lwrist 0
lhand 0 0
lfingers 0
lthumb 0 0
rfemur -66.1129 -6.23512 13.2038
rtibia 0
rfoot 0 0
rtoes 0
lfemur -69.3177 3.99556 -9.88605
ltibia 0
lfoot 0 0
ltoes 0
41
root 9.6838 11.7323 4.3287 18.667 -1.30825 -0.447463
lowerback -0.413527 0.510208 -2.08339
upperback 1.96076 0.74227 -1.5099
thorax 2.23637 0.347204 -0.363941
lowerneck -10.2851 -0.761041 7.33454
upperneck -14.8797 -1.49767 0.904676
head -3.13922 -1.15642 -0.958181
rclavicle -2.98177e-015 -7.95139e-016
rhumerus 62.7889 -0.533914 -54.5485
rradius 19.7217
rwrist 27.9329
rhand -10.5683 -37.1606
rfingers 7.12502
rthumb 15.4363 -66.5642
lclavicle -2.98177e-015 -7.95139e-016
lhumerus 0 0 0
lradius 0
lwrist 0
lhand 0 0
lfingers 0
lthumb 0 0
rfemur -66.1925 -6.20912 13.251
rtibia 0
rfoot 0 0
rtoes 0
lfemur -69.4006 4.035 -9.83826
ltibia 0
lfoot 0 0
ltoes 0
42
root 9.68528 11.7312 4.32782 18.5898 -1.28457 -0.486229
lowerback -0.275172 0.513575 -2.01935
upperback 1.90573 0.739768 -1.50302
thorax 2.10259 0.348188 -0.394263
lowerneck -10.5222 -0.632259 7.47751
upperneck -14.7177 -1.36818 0.81706
head -3.04066 -1.09108 -1.01229
rclavicle 1.05356e-014 -1.43125e-014
rhumerus 62.6408 -0.463582 -54.5751
rradius 19.7685
rwrist 27.9927
rhand -10.4171 -37.146
rfingers 7.12502
rthumb 15.5819 -66.5384
lclavicle 1.05356e-014 -1.43125e-014
lhumerus 0 0 0
lradius 0
lwrist 0
lhand 0 0
lfingers 0
lthumb 0 0
rfemur -66.1012 -6.21276 13.2832
rtibia 0
rfoot 0 0
rtoes 0
lfemur -69.3204 4.01354 -9.78961
ltibia 0
lfoot 0 0
ltoes 0
43
root 9.68681 11.7274 4.3257 18.584 -1.26582 -0.465675
lowerback -0.279003 0.489379 -2.07256
upperback 1.92433 0.708047 -1.45788
thorax 2.12295 0.330782 -0.318748
lowerneck -11.1831 -0.704049 7.62406
upperneck -13.8445 -1.58617 0.535466
head -2.6391 -1.17425 -1.13475
rclavicle 4.77083e-015 8.74653e-015
rhumerus 62.6854 -0.354017 -54.3762
rradius 19.8104
rwrist 27.8388
rhand -10.149 -37.041
rfingers 7.12502
rthumb 15.8402 -66.413
lclavicle 4.77083e-015 8.74653e-015
lhumerus 0 0 0
lradius 0
lwrist 0
lhand 0 0
lfingers 0
lthumb 0 0
rfemur -66.1371 -6.28932 13.2719
rtibia 0
rfoot 0 0
rtoes 0
lfemur -69.3291 3.96983 -9.81396
ltibia 0
lfoot 0 0
ltoes 0
44
root 9.68695 11.7241 4.32327 18.6276 -1.27562 -0.396574
lowerback -0.371512 0.467414 -2.20284
upperback 1.96365 0.684125 -1.4228
thorax 2.21386 0.315312 -0.209465
lowerneck -10.8038 -0.576784 7.39139
upperneck -14.1921 -1.33977 0.672705
head -2.8077 -1.05321 -1.04588
rclavicle -1.98785e-016 -1.03368e-014
rhumerus 62.7976 -0.335691 -54.3177
rradius 19.7992
rwrist 27.8037
rhand -9.79523 -36.8303
rfingers 7.12502
rthumb 16.1808 -66.175
lclavicle -1.98785e-016 -1.03368e-014
lhumerus 0 0 0
lradius 0
lwrist 0
lhand 0 0
lfingers 0
lthumb 0 0
rfemur -66.2285 -6.35044 13.21
rtibia 0
rfoot 0 0
rtoes 0
lfemur -69.3983 3.93316 -9.88244
ltibia 0
lfoot 0 0
ltoes 0
45
root 9.687 11.7224 4.32315 18.6295 -1.29714 -0.324086
lowerback -0.370379 0.466126 -2.31468
upperback 1.95995 0.68404 -1.42492
thorax 2.20832 0.313321 -0.149113
lowerneck -10.7051 -0.630965 7.13205
upperneck -14.2636 -1.35492 0.957158
head -2.84202 -1.05606 -0.907209
rclavicle 1.78906e-015 1.51076e-014
rhumerus 62.8309 -0.419421 -54.614
rradius 19.7265
rwrist 28.12
rhand -9.57906 -36.5964
rfingers 7.12502
rthumb 16.389 -65.924
lclavicle 1.78906e-015 1.51076e-014
lhumerus 0 0 0
lradius 0
lwrist 0
lhand 0 0
lfingers 0
lthumb 0 0
rfemur -66.2285 -6.36344 13.125
rtibia 0
rfoot 0 0
rtoes 0
lfemur -69.4128 3.91271 -9.95972
ltibia 0
lfoot 0 0
ltoes 0
46
root 9.68698 11.7208 4.32324 18.5789 -1.34243 -0.256227
lowerback -0.296209 0.478719 -2.42623
upperback 1.95043 0.699708 -1.43336
thorax 2.15556 0.319714 -0.0957255
lowerneck -10.785 -0.604259 7.36682
upperneck -14.1753 -1.3722 0.687375
head -2.80559 -1.0681 -1.03699
rclavicle -8.34896e-015 2.78299e-014
rhumerus 62.8612 -0.511726 -55.0233
rradius 19.5967
rwrist 28.5688
rhand -9.53918 -36.3055
rfingers 7.12502
rthumb 16.4274 -65.6299
lclavicle -8.34896e-015 2.78299e-014
lhumerus 0 0 0
lradius 0
lwrist 0
lhand 0 0
lfingers 0
lthumb 0 0
rfemur -66.1859 -6.34383 13.0328
rtibia 0
rfoot 0 0
rtoes 0
lfemur -69.3555 3.92346 -10.0522
ltibia 0
lfoot 0 0
ltoes 0
47
root 9.68713 11.7185 4.32187 18.5254 -1.39218 -0.194083
lowerback -0.26606 0.483547 -2.5334
upperback 1.96815 0.706947 -1.42992
thorax 2.15557 0.321266 -0.0323365
lowerneck -11.2259 -0.778351 7.78135
upperneck -13.7798 -1.73577 0.197207
head -2.62299 -1.24943 -1.27574
rclavicle -6.95746e-015 -5.1684e-015
rhumerus 62.9139 -0.534017 -55.2206
rradius 19.5196
rwrist 28.7885
rhand -9.70779 -36.1614
rfingers 7.12502
rthumb 16.265 -65.4992
lclavicle -6.95746e-015 -5.1684e-015
lhumerus 0 0 0
lradius 0
lwrist 0
lhand 0 0
lfingers 0
lthumb 0 0
rfemur -66.1788 -6.32386 12.9412
rtibia 0
rfoot 0 0
rtoes 0
lfemur -69.2729 3.91087 -10.1257
ltibia 0
lfoot 0 0
ltoes 0
48
root 9.68751 11.7165 4.32093 18.504 -1.41357 -0.180507
lowerback -0.197472 0.47406 -2.59204
upperback 1.91103 0.690408 -1.40006
thorax 2.05756 0.31299 0.0299411
lowerneck -10.1234 -0.67617 7.36763
upperneck -14.5646 -1.42295 0.464701
head -3.05838 -1.10205 -1.10956
rclavicle -8.74653e-015 1.23246e-014
rhumerus 62.8707 -0.379914 -55.0763
rradius 19.5166
rwrist 28.6644
rhand -9.84943 -36.168
rfingers 7.12502
rthumb 16.1286 -65.5169
lclavicle -8.74653e-015 1.23246e-014
lhumerus 0 0 0
lradius 0
lwrist 0
lhand 0 0
lfingers 0
lthumb 0 0
rfemur -66.1875 -6.30654 12.9089
rtibia 0
rfoot 0 0
rtoes 0
lfemur -69.2369 3.89392 -10.1335
ltibia 0
lfoot 0 0
ltoes 0
